<mxfile host="65bd71144e">
    <diagram id="JBI_FJsBgARIebrV1lQ3" name="Page-1">
        <mxGraphModel dx="1163" dy="601" grid="1" gridSize="10" guides="1" tooltips="1" connect="1" arrows="1" fold="1" page="1" pageScale="1" pageWidth="827" pageHeight="1169" math="0" shadow="0">
            <root>
                <mxCell id="0"/>
                <mxCell id="1" parent="0"/>
                <mxCell id="10" value="VPC" style="points=[[0,0],[0.25,0],[0.5,0],[0.75,0],[1,0],[1,0.25],[1,0.5],[1,0.75],[1,1],[0.75,1],[0.5,1],[0.25,1],[0,1],[0,0.75],[0,0.5],[0,0.25]];outlineConnect=0;gradientColor=none;html=1;whiteSpace=wrap;fontSize=12;fontStyle=0;shape=mxgraph.aws4.group;grIcon=mxgraph.aws4.group_vpc;strokeColor=#248814;fillColor=none;verticalAlign=top;align=left;spacingLeft=30;fontColor=#AAB7B8;dashed=0;" parent="1" vertex="1">
                    <mxGeometry x="300" y="160" width="300" height="360" as="geometry"/>
                </mxCell>
                <mxCell id="16" style="edgeStyle=none;html=1;" parent="1" source="9" target="24" edge="1">
                    <mxGeometry relative="1" as="geometry"/>
                </mxCell>
                <mxCell id="9" value="user" style="shape=actor;whiteSpace=wrap;html=1;labelPosition=center;verticalLabelPosition=bottom;align=center;verticalAlign=top;" parent="1" vertex="1">
                    <mxGeometry x="140" y="355" width="50" height="50" as="geometry"/>
                </mxCell>
                <mxCell id="21" style="edgeStyle=none;html=1;entryX=0.225;entryY=1;entryDx=0;entryDy=0;entryPerimeter=0;" parent="1" source="13" target="24" edge="1">
                    <mxGeometry relative="1" as="geometry">
                        <mxPoint x="440.45000000000005" y="400" as="targetPoint"/>
                    </mxGeometry>
                </mxCell>
                <mxCell id="13" value="" style="points=[[0,0,0],[0.25,0,0],[0.5,0,0],[0.75,0,0],[1,0,0],[0,1,0],[0.25,1,0],[0.5,1,0],[0.75,1,0],[1,1,0],[0,0.25,0],[0,0.5,0],[0,0.75,0],[1,0.25,0],[1,0.5,0],[1,0.75,0]];outlineConnect=0;fontColor=#232F3E;gradientColor=#F78E04;gradientDirection=north;fillColor=#D05C17;strokeColor=#ffffff;dashed=0;verticalLabelPosition=bottom;verticalAlign=top;align=center;html=1;fontSize=12;fontStyle=0;aspect=fixed;shape=mxgraph.aws4.resourceIcon;resIcon=mxgraph.aws4.ecr;" parent="1" vertex="1">
                    <mxGeometry x="420" y="480" width="40" height="40" as="geometry"/>
                </mxCell>
                <mxCell id="14" value="ECR" style="text;html=1;resizable=0;autosize=1;align=center;verticalAlign=middle;points=[];fillColor=none;strokeColor=none;rounded=0;" parent="1" vertex="1">
                    <mxGeometry x="470" y="485" width="40" height="20" as="geometry"/>
                </mxCell>
                <mxCell id="19" style="edgeStyle=none;html=1;exitX=0.5;exitY=0;exitDx=0;exitDy=0;entryX=0.5;entryY=1;entryDx=0;entryDy=0;entryPerimeter=0;" parent="1" source="15" target="13" edge="1">
                    <mxGeometry relative="1" as="geometry"/>
                </mxCell>
                <mxCell id="15" value="developer" style="shape=actor;whiteSpace=wrap;html=1;labelPosition=center;verticalLabelPosition=bottom;align=center;verticalAlign=top;" parent="1" vertex="1">
                    <mxGeometry x="415" y="570" width="50" height="50" as="geometry"/>
                </mxCell>
                <mxCell id="22" value="push docker image" style="text;html=1;resizable=0;autosize=1;align=center;verticalAlign=middle;points=[];fillColor=none;strokeColor=none;rounded=0;" parent="1" vertex="1">
                    <mxGeometry x="450" y="530" width="120" height="20" as="geometry"/>
                </mxCell>
                <mxCell id="23" value="HTTP req / res" style="text;html=1;resizable=0;autosize=1;align=center;verticalAlign=middle;points=[];fillColor=none;strokeColor=none;rounded=0;" parent="1" vertex="1">
                    <mxGeometry x="200" y="390" width="90" height="20" as="geometry"/>
                </mxCell>
                <mxCell id="24" value="Public subnet" style="points=[[0,0],[0.25,0],[0.5,0],[0.75,0],[1,0],[1,0.25],[1,0.5],[1,0.75],[1,1],[0.75,1],[0.5,1],[0.25,1],[0,1],[0,0.75],[0,0.5],[0,0.25]];outlineConnect=0;gradientColor=none;html=1;whiteSpace=wrap;fontSize=12;fontStyle=0;shape=mxgraph.aws4.group;grIcon=mxgraph.aws4.group_security_group;grStroke=0;strokeColor=#248814;fillColor=#E9F3E6;verticalAlign=top;align=left;spacingLeft=30;fontColor=#248814;dashed=0;" vertex="1" parent="1">
                    <mxGeometry x="400" y="300" width="180" height="160" as="geometry"/>
                </mxCell>
                <mxCell id="25" value="" style="whiteSpace=wrap;html=1;aspect=fixed;fillColor=none;strokeColor=#FF8000;" vertex="1" parent="1">
                    <mxGeometry x="460" y="330" width="120" height="120" as="geometry"/>
                </mxCell>
                <mxCell id="26" value="ECS&lt;br&gt;(Fargate)" style="text;html=1;resizable=0;autosize=1;align=center;verticalAlign=middle;points=[];fillColor=none;strokeColor=none;rounded=0;fontColor=#66B2FF;" vertex="1" parent="1">
                    <mxGeometry x="500" y="330" width="60" height="30" as="geometry"/>
                </mxCell>
                <mxCell id="27" value="" style="points=[[0,0,0],[0.25,0,0],[0.5,0,0],[0.75,0,0],[1,0,0],[0,1,0],[0.25,1,0],[0.5,1,0],[0.75,1,0],[1,1,0],[0,0.25,0],[0,0.5,0],[0,0.75,0],[1,0.25,0],[1,0.5,0],[1,0.75,0]];outlineConnect=0;fontColor=#232F3E;gradientColor=#F78E04;gradientDirection=north;fillColor=#D05C17;strokeColor=#ffffff;dashed=0;verticalLabelPosition=bottom;verticalAlign=top;align=center;html=1;fontSize=12;fontStyle=0;aspect=fixed;shape=mxgraph.aws4.resourceIcon;resIcon=mxgraph.aws4.ecs;" vertex="1" parent="1">
                    <mxGeometry x="460" y="330" width="40" height="40" as="geometry"/>
                </mxCell>
                <mxCell id="28" value="" style="shape=image;verticalLabelPosition=bottom;labelBackgroundColor=#ffffff;verticalAlign=top;aspect=fixed;imageAspect=0;image=data:image/png,iVBORw0KGgoAAAANSUhEUgAAAW4AAACKCAMAAAC93lCdAAAAkFBMVEX////MAADJAADrra3kk5PwwMDzz8/wycnrr6/55eXZYWHfeXnNAADYV1ffd3fhg4PWTEz+9/fQMTH339/77u7aZmbuurrRLS388fHmmpr119fghYXQJibXUVH++vrQISHopKTUQkLjj4/TPDzOEBDZY2PcbW3PGRnSODjRKSnnoKDmmZnODg7xxMTTQEDYW1szNfrvAAAL7klEQVR4nO2d6XqqMBCGZdzrggi1Hvetaq2t9393RxLCkgWSAEqR78/pc4AQXkMymZmEWq1SpUqVKlWqVKlSpdy1clo/zfrlu/PsiryGtuDp2RV5DdXBQIL2s2vyEnII7t6za/Ia2hqenl2R19Dm3m8b/eup30o4cWo9pD4llzWzViuZEydw61TEH6b7oAowmDy7Gq+ibzSogrGrmrhYdTP+uGXbP5d/d5nm3P3n0rZtPk+T2DBJnfzrqrkGMR17Ml/e6bEyjPG80e5Spw8JbjvnSv9VzX5dQmveoW79E4MVyT06mE9CDb1h4NNh+qj6/yk5Rw/PnD4ym3/EkY4w/+hNHO8yazJwL4Oq7+ZpRojCLPzf3d1JjnXAfLwjJUw3CzAq3FztCNVQdzLZq7EmxA2TDAGznpSV/oL68mANvO7AIt2vhgD65iz+dq8u1J3Ar0ep29Np2BHiHxcn/o6vLfMO2JsGOsOUsD3ig8pRK9bVxB3t1MwCNiZ+ulSdt0AemO/MYCPghklPgSoFap6yhI2Aw2c1teTL2WYNGxMfVHYKR41cYCPgywo4pdlHbrRd4LeqSwlrlydsBPy98lcR2bk2bQJ8XpmFSJsHwHZ5G/VnP2kBtHp7DG0X+Pnlx0w704lNIvDjaztlO9nA9oNpob/4JxqvnNLZS03bRTt4r3d+nLum06n7T7NTf78dBNBh+6oT+9U5raMV9vMfoau1XR8aPOTw/ciHLIzsfjrWBzPZx+o0ewcGOSxecNbTTtO04TAXWhn2zInMaewLE4iDf/k/X7FU16cNcItr167L/LQ/XtqBFeJszlHicH6tHlx/2g4w91FxJ4pDcl4kT6i7i8Y/obwmijWk/2euSxsMP0bT/Xc+8e52JKfSDbg5CjdxuJV0Vm99wG90enHUpA1XMhG3Ots7O25e2oCczHql7HDUGfqlnGRa6/uzncL22k2PNsCFFDnEPQM0OPdbE4ubN4OchuNzZRwxrQN+tKApDTRph2bgxIb84NywNak3zO0JQNBZXIJOHJZl61CsL/JoJMF9qUUbTuGRj/T9MVmujjjf+F9o1CyXCb4aB8Bwv6vXtqkFZ15eIYCeU3W187uUclkoXwHcNRq6PvVo/1DlnlzWv/prcKZDn3eZVg5efLp9RHuoQxvOjJFhgtFL1w/YI9IhjUrklf2J9LJa9jYwZvu9N8lg5c3k6tXmUKIppo2RoWm3VnYD7HKrm//rlyih0Brf5yMb96+JFu08l+zZe2/MLdOA+Ya7Ay0fIDNIZixvcMnxFXq80OSvqwE7d9r3auFkuVIZKHetDtq0u/k6N3DmBXzmepNHa6tDG3WpTp/r+ctO3TGKKm/zvctDpRMFxkv/pn3OGsCM5brfyzRc6mQ4wJt7pXUy6DWAOahlGGUyvnWMki906Rn9vci7htMy+QZ1gu44GvNZQkMtb+nEE3BXGrwWZWp9+Uorx/UNX0u2yyiXXzpPaXXcfmteoKZeyrBiPlprwA48JW4kIVe/Sclk6jTuUfj63M3uEknPMRU2gmEkLLwSpdVVh3ZkY6oWNQGZcPZJotS/XWTGVnvybfYYmZsmd+HU95DS0RtR7CN9RD6jYjXr7Ngq+DoqbqillcIdv9FOU6ZIgPEm3nacucmxIu3/sYnMS+YsLyrRYg7cJOm0jv2EhqM2arW0aPOydQJJ4TbQ3nbiQpxB/DIVgCMNfMCc4+Omj7xJwZklL5RWxK3TlRiihBxPsrhd4KLaSiTgAp13nzVumTC5Gm694GR841bA7aZecYuQC1HDMtKpZYvbkVpNqoS7q5dUkrDCVwW3AWfOOCCb7gyL8MWZ4u7KuZGUcDMVlLpDUhhLCbdhrBneCiHqcU64p5JOOxXcP3qNO8mEU8Rt7KnrHZXKhHJcssS9l72/Au6TwnMFSoxhqeKmX5c3pYtDmbvMMW3c/2QfQQH3Ra9xJ8awVHFT32uYqV0eTGmzw23J21bSuOXLjN4gMRtNGXc0FnRTrI/ft2WHW35lkjxuzSXByfkH6rjDlVZtBUEcKTvc8r2sNG49I1CmfHXc4VUOyisMfzPHrdCdSeM+JpfFLd+99jt2WqmBO2TtKA2USKQymeGWHijlcSsOSL5c584KFnFZCDq4A+8JN5nL9wjxjpG6ZIb7XaHikri1ZjieXXKfhkBTAfd1/BESdzfCM7l4yrnnoVfvYG0476Rv12SGe0SXo+oRZKbduo0bNSV33W9MpgODmwo/fPPuTewddkiJeqKmW+Y4yQrNDPdX9OTt3BSqxw3SjvqN6OtP/4CyQiYbmuBS/iEF3LzIv995M7jpyNyKuZS8aJnhjgZvIeEjH6y67qdqtpvAQazbuA13zuxF7kFU50TcnB/bfylZ3MynMugTCocbR38BbsKaSQp13V7jFK7pTcbNxkfx8okaDzcdRaCds4XDHbx/YCBftXbjRk3Nm/YJv+ySjLvGFkx+u2TcdOZA4XCH+krs8VCwdKJCidzenEsY05HAzfQmZcK9CK7tcx9JWi44knR1Ft1OAvcnQ6Y8uEM9JY57aW+gFrmcH/aqSeFmXq9C4Y4agqpJSyEXG6q7pivQ8O0HFG3xd9NgJIF7yZS88Y4UAXeClXy9zX/EXgwndDPUIrnTDCkR69g+xc0rtYZKsSH4eNyJQxuAMRTFtELRdmxM6G9Y54+O1hIYe1gBN2sZ+UGZIuCWcVGBaAPVRt+/GgVStdYGewpKnYvj8cm4Wa+fD7UIuOVynUC0dLx99PYqQlbgVqYsvsLcmsLuKxE3x2V4JceKgFs2vOAPOLSsydLdicv9Uy95HkvOJGJoLhNpB2ZOIXBL57mIeN9HzMsBPZP2nnXSJhGDczEP651TgcCPWQjc0rYbCPoTJPT6p2jckr50tvVGPMTckv1hpxC4FVYrJQTK0+zIHftbxuFO1Lt/cTFw10ay3UlCStlWEgC37Lxwh3JzWNx0+8nfI1jz1kJLVT3224T67hKD43rOCncou52t4Nt7VGPqeC64a47kF8fixzP9GaXhReFzwB3+GdXbQz64a5Zkf9KPK2SRfH3Mg+WDO2JOFQa3O7mUqUtchqp2XAGXnAvuaEZ9gXDXHJnvzsblTKYwul3lgZsKeRYJ971HqY+YtAf6JjFrOfRSjIliuylN3LQlVSzcd63s9mQyQVkuEyQ61UU81U7Xl+SAm10LVTjcjGh/oTDMkrYvOcjVRxo3gMlMyoqPmzbuxLhVn4SS5A5fcrgBzhvODLhEuNM4A11l2bqBx7pWKtwKibRcZdp3H/iz3xLhPqs+CSWE207cBUm27+a6BMqD20nZuLHd3YNewi4H0kMlj/djcKfZcZNeQSbCnSZIiavvltIAA9a7uLWV0rj7nP7kMbgPY77w6LS63TXAWmKNsLbb7YhKRzZELlg6dVRZCDfyvLvbYyiEhkXfc+DwfgxuYVnofEvp9qJZpc6eU2xlyDsi/BALL1a5l+ZdCNwqqSGir3mkcnXjkt0G7afACV1hnEj86kNQJMP77+EWbDKX/kO2KCvIdwQIt+7mJT5YIs/vleLNWSwS7yJ6Om4BBc2VfeGS3er79o1aOr0l6soo+5sNnnVaEc169AnPxS0yTHS2Q6cqg6qfeCN+Ws9UtDHQITLmJi8WoSdrz8UtWlQwTd2XeGvA/G5hrYS75oge4hTmzeKmh4hi4f6t8aW3eUm0MmbkqUS9lihpTfhxh3WI9x/DLdyNNaXzFamHCyKmoOBWwhxBIe9Q+/5buMUrG3QXm4WFPbD2bo2IiyxOcUqm0CW5jsmiKjDumP1BM2jcQbCy1TOA+/GteNzicNJCuGq4wLiB3tYpUPpJjhG1EpqfIHDIxiUcJ/L+Q7jhvSZUyjCld4NIb23V+W6T2Pxu4Q6/X9bfwg1G3C5RehtP0beQ+tpnfDq90ELCvP8IbjDmsbmvu4StY+UkleDdpK/6jT9MhOyTLvPfNO4GfQLBPWIu9XC35R8Q4048bdBJCLJ0do302m1kcHc39aio5IZ2na+Ny82iL2YcvTP6BDKgNMmuJ0R174hDHxAKv70rQQWxOu3qOxOVKlWqVKlSpYLrP7ac0AxVxnV/AAAAAElFTkSuQmCC;" vertex="1" parent="1">
                    <mxGeometry x="473.9100000000001" y="410" width="106.09" height="40" as="geometry"/>
                </mxCell>
                <mxCell id="29" value="" style="shape=image;verticalLabelPosition=bottom;labelBackgroundColor=#ffffff;verticalAlign=top;aspect=fixed;imageAspect=0;image=data:image/png,iVBORw0KGgoAAAANSUhEUgAAAPcAAADMCAMAAACY78UPAAAA/1BMVEX////+/v45TVQAi7gDmsYkuOsDm8YAqtojuu4Jk7q/2uAvRU03S1I5SlAyV2IslLk6RksdyfhSY2kAsdqXoKQwYW/q7O0AqM7N09QrQkqMlpodg500ZnbU7fE6REcmrt0xcoUjepAgO0NzgYa1vL4rka4pnb/EycsiuuQTkK4saXvg4+Qczf4Pmrtte4AmpsoIha4ff5g1U1w7OTilv8XW2tulrbB/i49CVl1hcHaPmp1ZaW4IhK4lZXuwt7oxdY0WeZuz1t6Wr7Q7NjMAKTMuiaovfZkgbot5w9uS0+RNtdPc8vS+0tURfKHA6PB8xt2huL1ZrMiIoaaRxtVmi5e1yTIsAAAfoUlEQVR4nOVdC2MaN7aekWPH7giMeZnBjo3BDjasIaYFBtNA2r12um2a7Wbv//8tVxq9paOZAdtJdu8pjXmc0ejT+c5DmlcQUAnDIAy0F/2sXj6Bfg2eV7R+qO6Y+/VrBI6GUkpxpv9nANxEjL6y8cxCk6OhLAG8LFttpKTtVR8LoIWiuO2t+G7MTrhKgaVk9c/oJvhFAHyRr2t+Bw1bUXM/q6iBMMZN/9r85H1nfw/vTt/FZuZ+KdyBg1vjkzsePiWFm/m2gxsOB/kcf24xAIuuwgMR6Ij0T7a6/r/e48LWfXF7w4zNIHNhXY7TyBjfkX9rTLK7riico2ESMsO/7Za0j84vgfNLIMIxe2d0wxtRAktJRHgQhNcJMzTs0Qp477T9Z9gWwrqxvY3GtPwFK0PscyBlKkEaoiOBtBRsErV1oHVYDxdy5AMdCmDvyzkol3aWzyTHc4kd0IERcKEboxn4B82UdjcCpFt/PjCFxWKZ14UyCcc1cqUdoVLFEoyir40bMKodxzaI04VwlxonljQwjPuFme5EWoDNBcXwB/MD/4rgvji6PiIv9U+nlOIGtL+ewEG78Ma5kuLujK86R43x28FR43i8Fri/sXgTlOMTGe+8kuIuj68afyuN35aPKuO3p98At2ZJmZEyE7Me07diY4q7Mb46/RumuEvfBncqImDrcU2DLGEbtZSG2R4V85P5RT7ur5vBNQH2Zoab0IVe3Pjfib21mlHx3K1Ei7YWmAMEDEZR3GKEjdIwsxD1azhKguOAQ3v824M2NN87+1IvP25b9SVZrgNVg+DkscLN5VN9E/92WnYbdyNuZg88MUwZ28nfZiVi7ET9cdoLbOb4cUP9eDlhFlY7fS7/Nvegvfy4Ib94KQmlf6tCLXcbHY/TnGduLhvP8O8tZjnbSg7Pn864LePaS4tmCMuht+Z5jmTUqUAs8+8nf5SyNKRLa2jz+/4UMeYlp0dlNS9xE7AbrR0gUDw3lULtnR3PXb5vbu/wvl5EFpjgtmQ7nj/FQKB3g7tQ/TFGVWmE4AKSIxjhcseSMvbkMW2xJwgtMrSq/UDjRWjqymJaI4/6I3KYCOnehF5kCGOESrYAX2F3nam0xTrTMImi1aYbqc4aoC2r5mxqEyBGpYFlyMGkNFhbMinB9t6sTm0uIoTj9rZch60b2l0oMgIEd+W2Zspx+WxsO/NppWNp1QaafxeUNhnlEop7WwIXZUtgTL/toFqU55Xb287xxc3toHZxM27UOjcE99vrQe3k6vr0+uruunx9dXJNcXduTzq1xu3NgP7TMXAXG+w+8Zb1KQE+am6JW9VroTYK28RzivumcXx6coNqg5Pbs1rjhOKuodrFxXXl+qRz/ffr9Tq1d/nmrlEr3VxNaiWyicC9Qb1WxaXT3fM1CQzbAVesNkBuUyhruCce3D9eP14o3PjmqmzgLt7tVozO9vb3d9eVLanOgpnieSiHQkdsjjz/2h4PxvM83Gsv7jC0PMxv73AelQb7u7u7+8Ti8Xwr3FquZDicvW/Ocz/uiwx7F5chwviQ4t5NLb5FOpP5247sL8TzTNwZacTswWWMJucp7P3zBikIpgHUTbvXTt3rlCvB1rjzeF7I3rl7JDRfM3MT4JNStNzYxbl/59XnXxd3rizxGac5AX5IgvpsU9yq0s7EXdi/c3H741pxGSa4dC5wExcnTDeTWT5XQ5vnQT7uEHhXFHdGHrM6kVGntsjU5lzCJkzforwXuA17O3VLoZa+mr37UelU4d7df6jgZIvqxRPPt8L9VfLYKi4NdjU5L+N4Qw8XdQsE2pjIPhNuq26ZbIt7va/h3n8s4epmuKG4FmxXpwac54OTmzKZktyi2mmK+7pcu7u7nlyfrAn4u7sUd+P2ZFCb3BDIEzo5eSru1xUUDTfGLbK14na+f4ctV6KnzEPnU6e9aVHcu7uN0qZrENy6+jwMgO5sNvyfri10uaVzYcmk1LHOZbkrlxq2VhmjyGmvO8rCbcAmRI/aAkSxiJQdz73z72bXXUHCCNkLSBUEnbwErDMBjUU9X58vrbhGInqJzEdbq/tRtRrHMaou5rN+doSXuI1ZSK69Ke6GJWVUapya0iCZ1lab4ImldUq+chrDftx9XGqcG7j3EEIJiiOMyeCTSQuOYpwsLnOgO0E9378p7mPLS2/QWc3y5ety5cZ25kbFXUeuDGytm4ofN6lbJi5ujE3CYBwndW+0889L1CzYAh4K3Dd3xxe3NxfHndvbi1rn9gaf1Wp31ydvjztHJ+PrwdHdW4r7uDM+OTkeHJ/cHTeOyTuK++747d1R53h8cdSpjU8I7tPaHV2ZSteo7k5uO8cnGbibCT7bMwL6OcKlyuR0/fhwsEfk4OFxUCbegyNc99jcyFrc/E4G89j7ZHBcvj0pH4uERHCPG9enV2N01Lmq/XjUuKK4b/FtpzOuHF8Mjn887nRS3Ow40du3E36ciOAmGf/vtcYdSfuDzu1knIU7WODKg5nISpPBwd5rXfYO1hOKvHrptzeDq9bXAAZ4cJNE3Die3Oq4B1fjCcV9dnSa4h5PKO6SwJ3y3D4umOIe/0hxV2qDi9tJpr3psaZTA/fegwmay+MEoe49jBuQwOA5uOKzPe5jL+7bwrhbJGeeGxkcQk2ETNXgyj3MzmPZce2ZcRe3d7OKSwbRPbBJuPMVgl+d58+BO6hHuJwP+/XAZ24BM8jC6IzTJrjPXgT3MNIj27kH9kUJRXBU8/Ac8HhLvrG9g3mEJtLDPbAfCGzv4rrO86+C+zniOTF4esBkPw921VuxQfYuMA/dhOcItHejCG6rhNImDasIldbnGbAfMcJJusDsHn4KPTx/yXj+PPZu1kkhfva474O9NyBTctTKaIGn56JxDcJd9uBuPNneHhnWMTF3am+PsREledZShDSrnHXqH4vY265TC+PWzmfaBHfYnycxRpXyIfFvMJQ/lisIZx8hDlUNrru3s8IG4r5R9h7Uygz36XXnalw+6rytlYR/l287F+MJxX12fCFxD/42Gb9tHCF6sQXHfVY7PblFtc7FbdmHe9hv0+kmmYQ87IIkP3gY0MlYnHgSmAIORW9nXmKrDCnu4+Ma+Y++0ncUN71S5lr9Q3FzHfFPilvXotfVkHmorkMbo7i1HTabzelqvkzoiUGlUvkhTWLnHOpeKg8n69MyPQuCoG4PA3EWAxybJbMtnlsjMesZMu+RsHJnrSB1UOXkypQTd53ppFw6tbSuGqWyrdUhpdZc7XBBEHfTdQWCa3B4vq9gvy6fMalU6Kw7iqJklrvIKOK5G9fM8RnF9tlYxU5eKnqKE6SG9f3RlZRSqVIprw/Ped7msA8q6QoLXWSJ4hiN7vuFjmrBPNfMn/6pYrdnX1cQmjTWD6+ZpfXqlBThKEllMZ+1hqFwzMAOVE5VAq+3GC5exZUPD6kcfiPZI2be31eTMAGbzLniPvH+DQ8UyTo163wHtrLD9pPu/ZuIsYQqExiZYi+KHdfI5blrb4IbcdzGgt43E5W3J9sc/RZ1Sx7PpwhPvifcCvZJxT74XRQ2XzPVsrURFdK33xluBXuvjCN4AS0XOEzz9Lfv1N5acfpA0vyGRwR13C78oNVXXz4Vt7kGCMp+AR0uellaLkXu6WurAiMB5rEUKq1wAdyvZU+L9nP/oZwLan9vslewQR32QwnFNshw5l9tAAdATspT6UdxXeaHYeLg3j8fFOrp/u4DqaezVff3D8nE8XC/SHuvHzp7urnbge6sJPXMu3ioUdWeWnI1eRDI+JJ8XERkBitKPpLHsI57f//8YVKZHOYZnegdNmhlih79JidK67RUPd3bzYX++gGRWQnvymMF42FgJNzLhPS7rQxppyY1Q5FBTMcdtmN6qC0erUKO+0ziJiXEHpni0sp1/dquJ3Q4+/vjxwY9yEukUn7YhXTJd+ePE6ZTKp2SeVZWi7sHAzqKlfLjHg/mc32i3JwtYzpzoBndmUrrVtdZLspxKq1lnPaEII97q2mT1qkHPHPsHa4nZ9Q+tKeVxsOeWT+Keu5872GNzjjqVLXSOTzXsaebvT48PasgpXQ2WZOS1KnPWIuP5bOS0CuvH/SjIWGztVp0Y9Yt1O1NZfQyq3SjLNV4Tket30NYdgVF9Dg62dXg7m7dOS2XkcKS2giVB4+kq0peHz48dhqWHtOlUwuleviwLk9crQoqNzpmk0T18dRskR71Rbg6r89ms/v5aJngWO90Mm+FgWt13ZMlz1OqXLar3Qibks4707MU6MzI+pHODitnZ3jCBKVTYTaDsqVEdc/OkFBM2wPViEGJ8CYnJaPJknjR+SeZehLhM1W9y3F3We8bhRi0fMS+mM4WSVKFhNTnqPx9yYTABvuqOp0kxEkhRzd4HoTDpk9WMZq843LwLYTu+GfyH/v77uef/5zQaywKCJTKXJ57ZBjjybsdJq/2Xn1l2Xu148h7ft55ATHTV8DPXQuF/ztBXpNmFaMPOwr43ivztcdfz4x3j7fqwv7Azr526sxiUmy86Lj0otJHhXsLyd8I0GDYXdQ774yz7W2D5picf1UIfT0qNeRe/V3ntMxzhb2CSimTANg7jeIshwXiuZbe5bt+jHAR3CnpGetf+V/CvsYYOI6T/oVQ73wk85FtVlmgAQgyqR9GuKI5+KYc3prnIOw/SWGy8JSghhtn1alAfQ4dYRhFpfe5BvdQ17VnIQ2Y4js7P0+A8zfAQyLGO0vDmY8BYxiwa5dEJtvxMtj646d6phsIqsOwqXNHfWkceAKiz8OgHwDcMNHpxSyS6DuWlQVHDXuNf/vHP37Lgv7K+Wx89KAmmTt17lCrvnWKWpEJ1oDtDea7uR7RPd6qZ/LfP//w06c3v4yBLG+9YA0f7I8ldqqyPcXyWl0p6fYOXXtzcnA6iPHpdxH6UwOuWVnHLfo/fvMr6vbe/PGLh9QAaC3ce1HvfCAxbdl0OpjFc8j6mpsDcc1QWGItssEW1zr/z08Rjr788cOb3zPily9re1HTUM5XUM3u2UHMfAeGOdfe8LxtFSEkI9vOQSbuvVeff43ILL6X/PBPAQawN+TfvuTFYJNQTk9bgcjrZTgY1wS18+Ia0USmweG6UsjnLxGdH3cF7hwbi1cWxUl5itJQHpjROo/nIchzIJ67g5TKLNY9HGK6Zs1/fqLn/kfLlOewf7/SZjJ5uUtam8LWUHHiZqSyAFACcQMxkAk9HVYzOABcw0DiGo6i5NNnI655y5RchgvYs8ABnYcbtDcjdhGep7WLlsMlcD1/Kyf9/c2nv35683lsw/PxPMfWNKSV2HWBMIufznM3JYqtRhEqv9O64lg8hXDwYfDI65bffZa18liurUkCmzDYdtrOzN8eDY9/e2VqhjYe3FjdyWAfPKwbqFIq5a5BGGE8HzXJ2yWMoYvjwKTrVVLfAP7NXDwEhoKGto87mskZXroC9vDwuG5M+GkwA19JYlE9r0qRQqo0jEUk12KOApYZ1DjEHJ57c2DK9HRhtVEuv2eSXu1VnhDEdKk3inCyvDjwgrYZXgw1rclx0oLhFUnhlpK0d7G4RqRJDylg+2QjXOKnW1V7X3764Y/fXnlLUAN9QdA7f5bp6ab6+ooeqrw8z9bw5zHFeE29T9PyMkmqiVjmrybJYjHqffny16c3TD4XmXjsFfFqxnEk7stjlxSF4lrgaui4gyLmJjLrYvTrp58M+eHNmz/+eCOFGNz0Z8fexUEzjnfvHWR55M7SMMyusli2zGOM/vrBlje60KydJYUxkzhOOY77sqD2o8wKUJaSgGv6tyfhccLQ2EYs7gA3kLOiHFhdTPNbYdA7P7/HJGuPhj7vNXrLu5erIQztWDQnH1Lg+IsLXMc+NpP15naWxsZRPZOCGyTvvHasN2pbLs0FmVvPQeAC+2dRhqkCZjPI1NgNeib5sqXRT/+juGjbO9S+8DBCxrKCeYwDJxaPRp98yKn8tjFMG3UaxtF90wlouV6sZSL459SSKp4HheJaqt2LcVT9KQv4v54G+yO9mjceqaSdz9YNKlatTpWBvwjuILynR9phJ+fy9im2TlFXV4K4HpvqLPYaHtAwvFkL8jkhIJVVjLO5/svWwD+m4SzSKQ6IN49luILmylvxnMq0SrieafKtgL/7iCoENWKXiNgFR4FypUjBDtbnbvUH1LpEmm3K9aXfy7ew+J/v06v0kzlDLYxhx2Sb2W7UBsgN5nE1UkXtTeQyoWTveZH/sllw+5kQnPp13GYnX2oWdF+AmYtrmDwvnMekhPeE6jj2Iy+ezt59aKQnS8VVeS+Kjbx3Q/8GeL6RTHukao3Qwq3Ymfz7oBDoj40JNTVpKL3riqww7A7rtvPh9mnouEX9skVcE9Jf0BPeouoX2Oi5XH/34X05PQkv6lbrxkkM/sgEW7OwBm+c/dnO3nTT6QhR5IhAh/Lavw+9Dk0x07Upem5gtd1y9+2UoDIkQVWo2sKnoez8dNxEpm1ETxnkCy6OySEvf/fh43t6mmaaqino7e50vKUIrqsYuG1Dl/P0BklRFKPl/MtfpuV/+Zdw83c///nhI0HMFiDTEy2T3gw+Rwc2tu9lbwErSbyh3ETkuW2RNy9HCY7YCa0oSarL0Wj+5cuXX4l8+fK/64/v37MFSMxONSWhO0bV0Wza9O4yq0NGas5uAFKSPA+eQHMpzVZ9EbMLWPkZvULk5Y78Ss5uN1nUL6eZu4MysDdFbRL2AlW4ZGW9DcEPV/e99PrdOPX5dKE1fRFOd7soWY7m9UsghgHAFVxmMr2LNlY359mpzARuu4ZZx20nYXM4nF7O7tsjJe37+9XldDps+nlttwLZO/9VQOPpdctLCgTJX4UW1ZAJLOB1m17MGOi/+VCExlsgjltdhDRsJT1/Pymev4BoNYc3qQlH5hvASc2fx75HntvRBs7TSjMjk1s/Baa9vQLSxunjCwyZZ79+4gNKoMZ3bm89MTm2cFJXUaXAxZ1ttK89LKKmgsJyoBnQG74NJf1biOfWICnCzBaLUf9lAM56vXtgTEVucvHYLAZBK882mgk24/msS8uvra63zpN5l1RzI2vf2Sx+Gs8LxTXWDfosJITi9I6F+XFuIxmmVyh2nRtohRkUtjP5BoVMANrbHCTl0/SiIsSvtgVl+zFopTf4jd2bKkHjC+Unv4appFSK8zwX9/bSQh7cHilEtGwlwN5APUv/13ADTT6J8x7ccA3ivgpoBPYWHJZtbwDD17e3t17Svt5WI4/n6vM34Hl2yFJ9zYprQDMMMPtpU57DXdwaN8ryb6dhj3nzt1LvPTwH5DvkeWhqAEpeDX/+1jTSLaC4Bu3vK+DWobshztjEg/t7yWMenoOGMvroHxlIw6ekvh/2Z/P5sjqa3/f5qqcPdzi9vO/1qqPefNbPLmKJZntRXRIZ1Y0HL7i4p/VZy+0w2b6K6K0ER7OWOIHRMrbQDaetfp004uLmYQ3y77C/SORyaIyWsyaAmzXTrC8Ru8EC0SQduvSP+4o0GskbMFTnQ6nq4F6hOGaPB5WxOAhbPb49IptH1fbQQGTUpsP7ZZLe+0E8cdlQ8uG+XMaRdncMjGNcD0F7N+/Jb6ZqMoORr6qGJu37XNjc9u86vTkHjqd6SpmOjE7R7entStzpI2muR8eHd2gY2PnJ6J+IfoThI6N9vpNqy8UdXiaQ6gI47AM1iiJxeatp7/Ce3ZNEv9a5eY8id3sEndPXvI801QieOMu4Fghr9xN3B+nA3S8VbjZKbQBLCsfZl6dRgczE3ea63b60z3ARQ7tit8XV51L0XtmGanoJrTXbYsAFfgZ7prZinig/MZCaf49i5FHtWldE9LvYUBSq4jb8Bu573my0aAqS95Wx0+CgdhUlU4PFQd90hngZOjwPNNxCVnKzKE5o6E0i01ISd3rtAW8cJ0SziuSQYZNdl6JRTI8EElkiPojS3sq/73mz6fWQzDpTiZOEjwXdPpG7ojc5V9AIsVQfyD6SeVO5tTX/1kuVvmgvikeXU3r/k2G/ZyCXuHuifzGqt9Jbv0z5faF4p+XkvSXNG9XZYe7mlMRDEv/5LcN03Pd8jNIbOPCUIbDg7uIyTQLN6Uoipze1l6F6qkY4qfdbraEwLRDPRSAkf4d8Dziea5m4qfuxwD3rCqLp8bsvkEfq7p5N2Whby9nh5Xx078RzdiMwAdsiVrzQF2T6S/G1Cn8s9KaqOeuAJm5uQ4ysu0Yo9gjcYoSipVmqyDFSveFQ3Mug1HhJ3JLkqC9ITryE83YmLMaCcbONFbeYv4r+47rish3UXHunD0RJN3MGayjjMcc9j7hZ9bIrBTJjwJl7BmLtjDQKzrYY/0Rcqwtrix7Qn9kIY/o8XH3FjMiKD7F42myfw6YOI4ozVdF5cYd8uKCHtw0FgxhuHmnA54PMWCsxdwielTJvPMLsjaui2EB9jpr0bRbLTmnVSdprzo5oxImw4Jtrt4Z0g5qDOxiKZpQhVCnfinXcdT6yoBcxpHxMQm7uRQZsjlvc9s3gW7hkkd+9b2Y4Fw7Ob6FK78ouzJ8nunezkcUInlxwqGwe6u2Mxkz20BTGPf32OsD8qIU0Yb4dsOwUtNj2uGk5adCUNwVE3L/5eC+kP5sFrNfeLG6yG9C6c7YmVnXLkI0Q9ky/2ABG81AOFzRCmrS0O/xhLKM23Z5xme7VLDxaSyMEBpLmcV8pSb8OAi3ZabjTj8yFo6FtET4APdkDetsihPyPg2HBHlfptiPWmcxnaui49ZKHNs86RcbCLLhUTYD5fQ9Eion1uYrnrYGb93bp6xwH21ZG9D68kg1RtykyKs65l6vCjfWnjlA2M9jVpol7JQpfWqBzCC3JLACsGdcEw3nRpOIWJEP1O4sosfeWWHX5Oyta/A8KsnCLSC5lCkZFWUipqaywS8HHv0uHJ7hx9nbaPJTj9oJZxYLcHDd002rNjwRuBzYPi+ZDPcK5vM2p3i7nY7EDtlpt3hJhwSMubqAxxqNLG3edFRzOzIjTVuCO+4aSLEU08qZzUhEBV9oklONm7q5yfIZ/86DHcXsPUhXALV4AbldJE5HHonnT0ug76WBa1QO5Jgp3AWGlbjps3L+9WZ8VnDpu7yoiSz4pbrSRf5vHwEPdvzk15FSBzrz1BTLQ3tLkxqcAiOcZz2llRqT1Jo/ngEuwbrN4HtN4vmRJoil/DnVFGzfZfVOV1qRTTSTyAWPmSuavxdAEKHD3TdiQqNWldBcs5SB7tip6yI1M/YDx2HuLfUZujLX8nb3ArOXv2KIGGzeR3eqxlr9AuxTnucAv6jV1TzfD08KIgaHt8nrNzspClw0Le8AGm6UI73E8W5+PCUOqXaZIEZL1mpiJ46htTbEsngPBTMviAjbHXZdVmOUUfH6ZNpuopXQnBgqC8sIvxdpSmwE1IP9r1OexRvVAq8+DpljQw3x9ymxN8tzsDhRHTXszK3oi+pCviLHHct/rUy59R1TEDIYRp2pNYaAIp9fntBiRqrLqJturQB7xiaZh1Tx7O3lM4A/4/Js9l88SdlKPLLT5/DuyT0FKx50vPFTZb3z+nFlHiXmoiFlzwXOZEwnTkQzkrcDCHUC4Aw1sAOCW8U2uVyzdKCRWcMSyGf+s14nclNPEXGji0wW23gIwTuGO2iJH8UNErJd8xUOUpukD9KQbunmsrw2Jm8eE22r+HQY8stEnGwSGYzRFZSiruSkS64dNCIKWusR6eNYNC8T6WlNQOZ4r3b6xkO1/gN628TwMpa2w8eDsUM51tbpJLIVFiX4kMJwJ2BEfOm09NVpoV1eEw/Z8xlZktHXFoQTeVkm0pwFPA3m61bS9GE19daqwsI/nejyn71ZdMazyYelhfy4W0NmDSDkPFnL9XD5RvrmSh3NidThJHTaI4jlXbV7O6ZFW0Z5aP5cLmNTivFNydVj52XC27JIG0FRLTjl1i9+/qYhjU/SwUHXebs8XSB42MO/FLFca6WWdy3l7Pl9iuc6u81QdAkmPYSSL3nyJ2DPr1PExedxgaFCdp3f92E91sVjIg1Y96YqWvcWXgWZvWYy5uEVMF72MtENR9jxAXySxVNnhOrEfejsI1Wj6vARBgLpt71CNJ10f5KPX144g60ficKIVApp/GwVCqEygQpZtbzq51XOpkrhqp7chcGg23bWWgPlfT6MKN0KycGgm4kDBVFqrD+8qWmipStUtdpFmftbyt54OSGgC9oGjuRtHSQEFwDEjHR/zGQYbnTo8p+PJw6heQMHHzw3Hc+q1LDHjGvtEwrfVSRxXVfY1w7fVHXoWAzgHmZrnUKSq8hAKK4Pk+cjcx40lkPCyah+ZtU4woHf0RUXvB2/znJm/34u0ix1j8bweQJqzqtLEUTdp+/Kn2ShpNblXAzSiN0yQGZ9Uh+ZnjrwXa+fHRD3LssQ/MHZOYt8EN82uq3n6BJCkWh3Nhllt0WtCueqSpCmRHE2vYj41XI2WotH0iLD8uTlPqov0GUv8cztJluJAsJpcDGejdPuEd0r5axolyG8jcYwQqFOteB7YPBdMbjbpZY1Fxi9sDqfTYs+yJG2SRoHvre+G01D0VY1eOni0AQ7VrErIb8NAG+ii9blm7/92CUHcofMq3qDxNrS/dyOj/pP9HTey6ohVbErb+jUCR0Pmb2X3/z/2FjwPn4Absqv6PgR0faSwvuMdCzwvzbBeJUD5P8C/Da66RVe4mUZg43bi+X+/yED2/wz3c/j3f6KoAu15cOupBEiHbrLJUnpJ+a7t7e1LfmmRV388M+78QmeDLr+k8LrFBP6Eeu15O1cwf/uV8vK3DjsLtfbVtxyQJ8r/AUAzXHvf6oK/AAAAAElFTkSuQmCC;" vertex="1" parent="1">
                    <mxGeometry x="460" y="370" width="37.53" height="31" as="geometry"/>
                </mxCell>
                <mxCell id="30" value="Private subnet" style="points=[[0,0],[0.25,0],[0.5,0],[0.75,0],[1,0],[1,0.25],[1,0.5],[1,0.75],[1,1],[0.75,1],[0.5,1],[0.25,1],[0,1],[0,0.75],[0,0.5],[0,0.25]];outlineConnect=0;gradientColor=none;html=1;whiteSpace=wrap;fontSize=12;fontStyle=0;shape=mxgraph.aws4.group;grIcon=mxgraph.aws4.group_security_group;grStroke=0;strokeColor=#147EBA;fillColor=#E6F2F8;verticalAlign=top;align=left;spacingLeft=30;fontColor=#147EBA;dashed=0;" vertex="1" parent="1">
                    <mxGeometry x="400" y="190" width="180" height="70" as="geometry"/>
                </mxCell>
                <mxCell id="31" value="" style="points=[[0,0,0],[0.25,0,0],[0.5,0,0],[0.75,0,0],[1,0,0],[0,1,0],[0.25,1,0],[0.5,1,0],[0.75,1,0],[1,1,0],[0,0.25,0],[0,0.5,0],[0,0.75,0],[1,0.25,0],[1,0.5,0],[1,0.75,0]];outlineConnect=0;fontColor=#232F3E;gradientColor=#4D72F3;gradientDirection=north;fillColor=#3334B9;strokeColor=#ffffff;dashed=0;verticalLabelPosition=bottom;verticalAlign=top;align=center;html=1;fontSize=12;fontStyle=0;aspect=fixed;shape=mxgraph.aws4.resourceIcon;resIcon=mxgraph.aws4.rds;" vertex="1" parent="1">
                    <mxGeometry x="440" y="215" width="40" height="40" as="geometry"/>
                </mxCell>
                <mxCell id="32" value="RDS&lt;br&gt;(PostgreSQL)" style="text;html=1;resizable=0;autosize=1;align=center;verticalAlign=middle;points=[];fillColor=none;strokeColor=none;rounded=0;fontColor=#66B2FF;" vertex="1" parent="1">
                    <mxGeometry x="480" y="225" width="90" height="30" as="geometry"/>
                </mxCell>
                <mxCell id="33" value="" style="endArrow=classic;startArrow=classic;html=1;fontColor=#66B2FF;strokeColor=#66B2FF;entryX=0.556;entryY=0.967;entryDx=0;entryDy=0;entryPerimeter=0;" edge="1" parent="1" source="26" target="32">
                    <mxGeometry width="50" height="50" relative="1" as="geometry">
                        <mxPoint x="351.79999999999995" y="400" as="sourcePoint"/>
                        <mxPoint x="535" y="260" as="targetPoint"/>
                    </mxGeometry>
                </mxCell>
                <mxCell id="34" value="data" style="text;html=1;resizable=0;autosize=1;align=center;verticalAlign=middle;points=[];fillColor=none;strokeColor=none;rounded=0;fontColor=#66B2FF;" vertex="1" parent="1">
                    <mxGeometry x="530" y="270" width="40" height="20" as="geometry"/>
                </mxCell>
            </root>
        </mxGraphModel>
    </diagram>
</mxfile>